<?xml version="1.0" encoding="utf-8"?>
<!-- Generator: Adobe Illustrator 26.0.1, SVG Export Plug-In . SVG Version: 6.00 Build 0)  -->
<svg version="1.1" xmlns="http://www.w3.org/2000/svg" xmlns:xlink="http://www.w3.org/1999/xlink" x="0px" y="0px"
	 viewBox="0 0 544.68 113.03" style="enable-background:new 0 0 544.68 113.03;" xml:space="preserve">
<style type="text/css">
	.st0{fill:#FFFFFF;}
</style>
<g id="Impaktfull_-_White">
	<g>
		<path class="st0" d="M39.14,31.88c2.51-0.63,5.82-1.29,9.94-2c4.12-0.71,8.88-1.06,14.29-1.06c3.92,0,7.21,0.53,9.88,1.59
			s4.9,2.61,6.71,4.65c0.55-0.4,1.41-0.94,2.59-1.65c1.18-0.71,2.63-1.39,4.35-2.06s3.65-1.25,5.76-1.76s4.39-0.76,6.82-0.76
			c4.7,0,8.54,0.68,11.53,2.06c2.98,1.37,5.31,3.32,7,5.82c1.69,2.51,2.83,5.49,3.41,8.94c0.59,3.45,0.88,7.22,0.88,11.29v34.35
			h-10.94v-32c0-3.6-0.18-6.7-0.52-9.29c-0.36-2.59-1.02-4.75-2-6.47c-0.99-1.72-2.32-3-4-3.82c-1.69-0.82-3.86-1.24-6.53-1.24
			c-3.69,0-6.72,0.49-9.12,1.47c-2.39,0.98-4.02,1.86-4.88,2.64c0.63,2.04,1.1,4.28,1.41,6.71c0.31,2.43,0.47,4.98,0.47,7.64v34.35
			H75.25v-32c0-3.6-0.2-6.7-0.59-9.29c-0.39-2.59-1.08-4.75-2.06-6.47c-0.98-1.72-2.31-3-4-3.82c-1.69-0.82-3.82-1.24-6.41-1.24
			c-1.1,0-2.28,0.04-3.53,0.12c-1.26,0.08-2.45,0.18-3.59,0.3c-1.14,0.12-2.18,0.25-3.12,0.41c-0.94,0.16-1.57,0.28-1.88,0.36v51.64
			H39.14V31.88z"/>
		<path class="st0" d="M194.29,60.81c0,4.63-0.6,8.9-1.82,12.82c-1.22,3.92-3,7.29-5.35,10.12c-2.35,2.82-5.24,5.02-8.64,6.59
			c-3.41,1.57-7.32,2.36-11.7,2.36c-3.53,0-6.65-0.47-9.36-1.41c-2.7-0.94-4.72-1.84-6.05-2.71v24.47h-10.94V31.99
			c2.59-0.63,5.82-1.31,9.71-2.06c3.88-0.74,8.37-1.12,13.47-1.12c4.71,0,8.94,0.75,12.7,2.24c3.76,1.49,6.98,3.6,9.64,6.35
			c2.67,2.75,4.72,6.1,6.18,10.06C193.56,51.42,194.29,55.87,194.29,60.81z M182.88,60.81c0-7.13-1.76-12.62-5.29-16.47
			c-3.53-3.84-8.23-5.76-14.12-5.76c-3.29,0-5.86,0.12-7.7,0.36c-1.84,0.24-3.32,0.51-4.41,0.82v38.58c1.33,1.1,3.25,2.16,5.76,3.17
			c2.51,1.02,5.25,1.53,8.24,1.53c3.13,0,5.82-0.56,8.06-1.7c2.24-1.14,4.06-2.71,5.47-4.71c1.41-2,2.43-4.35,3.06-7.06
			C182.57,66.87,182.88,63.95,182.88,60.81z"/>
		<path class="st0" d="M229.45,28.58c4.39,0,8.1,0.57,11.12,1.71s5.45,2.74,7.29,4.82c1.84,2.08,3.16,4.55,3.94,7.41
			c0.78,2.86,1.18,6.02,1.18,9.47v38.23c-0.94,0.16-2.26,0.37-3.94,0.64c-1.69,0.28-3.59,0.53-5.71,0.76
			c-2.12,0.24-4.41,0.45-6.88,0.65c-2.47,0.2-4.92,0.29-7.35,0.29c-3.45,0-6.63-0.35-9.53-1.06c-2.9-0.71-5.41-1.82-7.52-3.35
			c-2.12-1.53-3.76-3.55-4.94-6.06c-1.18-2.51-1.76-5.53-1.76-9.06c0-3.37,0.68-6.28,2.06-8.71c1.37-2.43,3.24-4.39,5.59-5.88
			c2.36-1.49,5.1-2.59,8.24-3.29c3.13-0.71,6.43-1.06,9.88-1.06c1.1,0,2.24,0.06,3.41,0.18c1.18,0.12,2.3,0.28,3.36,0.47
			c1.06,0.2,1.98,0.37,2.76,0.53c0.78,0.16,1.33,0.28,1.64,0.35v-3.06c0-1.8-0.2-3.59-0.59-5.35c-0.4-1.76-1.1-3.33-2.12-4.71
			c-1.02-1.37-2.41-2.47-4.17-3.29c-1.76-0.82-4.06-1.24-6.88-1.24c-3.61,0-6.76,0.26-9.47,0.76c-2.7,0.51-4.72,1.04-6.06,1.59
			l-1.29-9.05c1.41-0.63,3.76-1.24,7.06-1.83C222.05,28.88,225.61,28.58,229.45,28.58z M230.4,83.4c2.59,0,4.88-0.06,6.88-0.18
			c2-0.12,3.67-0.33,5-0.64V64.34c-0.78-0.39-2.06-0.72-3.82-1c-1.76-0.27-3.9-0.41-6.41-0.41c-1.65,0-3.4,0.12-5.24,0.35
			c-1.84,0.24-3.53,0.73-5.06,1.47c-1.53,0.75-2.8,1.76-3.82,3.06c-1.02,1.29-1.53,3-1.53,5.12c0,3.92,1.25,6.65,3.76,8.18
			C222.67,82.63,226.09,83.4,230.4,83.4z"/>
		<path class="st0" d="M293.21,57.64c2.35,1.8,4.84,4.04,7.47,6.7c2.63,2.67,5.21,5.55,7.76,8.65c2.55,3.1,4.96,6.23,7.24,9.41
			c2.27,3.17,4.19,6.14,5.76,8.88h-12.82c-1.65-2.74-3.55-5.55-5.71-8.41s-4.41-5.61-6.76-8.24c-2.35-2.63-4.74-5.04-7.17-7.23
			c-2.43-2.2-4.75-4.04-6.94-5.53v29.4h-10.94V1.88L282.04,0v55.75c1.88-1.88,3.96-3.96,6.23-6.23c2.28-2.28,4.51-4.59,6.71-6.94
			c2.19-2.35,4.27-4.6,6.23-6.76c1.96-2.16,3.65-4.06,5.06-5.71h12.82c-1.8,1.96-3.76,4.12-5.88,6.47
			c-2.12,2.35-4.32,4.72-6.59,7.12c-2.28,2.39-4.57,4.78-6.88,7.17C297.42,53.27,295.24,55.52,293.21,57.64z"/>
		<path class="st0" d="M342.72,30.11h23.17v9.17h-23.17v28.23c0,3.06,0.24,5.59,0.71,7.59c0.47,2,1.17,3.57,2.12,4.71
			c0.94,1.14,2.12,1.94,3.53,2.41c1.41,0.47,3.06,0.71,4.94,0.71c3.29,0,5.94-0.37,7.94-1.12c2-0.75,3.39-1.28,4.17-1.59l2.12,9.06
			c-1.1,0.55-3.02,1.24-5.76,2.06c-2.75,0.82-5.88,1.24-9.41,1.24c-4.16,0-7.59-0.53-10.29-1.59c-2.71-1.06-4.88-2.65-6.53-4.76
			c-1.64-2.12-2.8-4.72-3.47-7.82c-0.67-3.1-1-6.68-1-10.76V13.05l10.94-1.88V30.11z"/>
		<path class="st0" d="M403.65,0c3.21,0,5.98,0.24,8.29,0.71c2.31,0.47,3.94,0.9,4.88,1.29l-2,9.41c-0.94-0.47-2.28-0.92-4-1.35
			c-1.72-0.43-3.84-0.65-6.35-0.65c-5.1,0-8.67,1.39-10.7,4.18c-2.04,2.78-3.06,6.52-3.06,11.23v5.29h23.52v9.17h-23.52v51.99
			h-10.94V24.58c0-7.84,1.92-13.9,5.76-18.17C389.38,2.14,395.42,0,403.65,0z"/>
		<path class="st0" d="M473.87,89.51c-2.51,0.63-5.82,1.29-9.94,2c-4.12,0.71-8.88,1.06-14.29,1.06c-4.71,0-8.67-0.69-11.88-2.06
			c-3.22-1.37-5.8-3.31-7.76-5.82c-1.96-2.51-3.37-5.47-4.23-8.88c-0.87-3.41-1.3-7.2-1.3-11.35V30.11h10.94v32
			c0,7.45,1.17,12.78,3.53,16c2.35,3.22,6.31,4.82,11.88,4.82c1.17,0,2.39-0.04,3.64-0.12c1.25-0.08,2.43-0.17,3.53-0.29
			c1.1-0.12,2.1-0.24,3-0.35c0.9-0.12,1.55-0.25,1.94-0.41V30.11h10.94V89.51z"/>
		<path class="st0" d="M511.04,92.45c-6.75-0.16-11.53-1.61-14.35-4.36c-2.82-2.74-4.24-7.01-4.24-12.82V1.88L503.39,0v73.52
			c0,1.8,0.16,3.29,0.47,4.47c0.32,1.18,0.83,2.12,1.53,2.83c0.7,0.7,1.64,1.23,2.82,1.59c1.17,0.35,2.63,0.64,4.35,0.88
			L511.04,92.45z"/>
		<path class="st0" d="M543.15,92.45c-6.75-0.16-11.53-1.61-14.35-4.36c-2.82-2.74-4.24-7.01-4.24-12.82V1.88L535.51,0v73.52
			c0,1.8,0.16,3.29,0.47,4.47c0.32,1.18,0.83,2.12,1.53,2.83c0.7,0.7,1.64,1.23,2.82,1.59c1.17,0.35,2.63,0.64,4.35,0.88
			L543.15,92.45z"/>
		<polygon class="st0" points="15.94,29.73 25.02,60.05 16.32,91.28 5.38,91.28 14.08,60.05 5.58,29.73 		"/>
		<polyline class="st0" points="2.79,19.77 12.95,19.77 9.97,9.8 0,9.8 2.79,19.77 		"/>
	</g>
</g>
<g id="Impaktfull_-_Black">
</g>
</svg>
