<svg width="306" height="64" viewBox="0 0 306 64" fill="none" xmlns="http://www.w3.org/2000/svg">
	<path
		d="M22 17.7144C23.4186 17.3615 25.2893 16.9917 27.6178 16.5939C29.9464 16.1961 32.6366 16 35.6942 16C37.9097 16 39.7691 16.2969 41.2781 16.8908C42.7872 17.4847 44.0475 18.3531 45.0705 19.4961C45.3813 19.272 45.8674 18.9694 46.5343 18.5716C47.2012 18.1738 48.0207 17.7929 48.9928 17.4175C49.9649 17.0421 51.0557 16.7171 52.2482 16.4314C53.4407 16.1457 54.7293 16.0056 56.1027 16.0056C58.759 16.0056 60.9293 16.3866 62.6192 17.1598C64.3034 17.9273 65.6203 19.0198 66.5754 20.4205C67.5305 21.8268 68.1748 23.4964 68.5026 25.4293C68.8361 27.3623 69 29.4745 69 31.7548V51H62.817V33.0714C62.817 31.0544 62.7152 29.3176 62.5231 27.8665C62.3196 26.4154 61.9466 25.2052 61.3927 24.2416C60.8332 23.2779 60.0815 22.5607 59.132 22.1013C58.1769 21.6419 56.9505 21.4066 55.4414 21.4066C53.3559 21.4066 51.6435 21.6811 50.287 22.2302C48.9363 22.7793 48.015 23.2723 47.529 23.7093C47.885 24.8523 48.1507 26.1073 48.3259 27.4687C48.5011 28.8302 48.5915 30.2588 48.5915 31.7492V50.9944H42.4085V33.0658C42.4085 31.0488 42.2955 29.312 42.075 27.8609C41.8546 26.4098 41.4646 25.1996 40.9108 24.236C40.3569 23.2723 39.6052 22.5551 38.6501 22.0957C37.6949 21.6363 36.4911 21.401 35.0273 21.401C34.4056 21.401 33.7387 21.4234 33.0322 21.4682C32.3201 21.513 31.6475 21.5691 31.0032 21.6363C30.3589 21.7035 29.7712 21.7764 29.2399 21.866C28.7086 21.9557 28.3526 22.0229 28.1774 22.0677V51H22V17.7144Z"
		fill="#FFFFFF" />
	<path
		d="M109 34.2336C109 36.8718 108.666 39.3048 107.986 41.5385C107.307 43.7721 106.315 45.6923 105.006 47.3048C103.697 48.9117 102.088 50.1652 100.194 51.0598C98.2945 51.9544 96.1166 52.4046 93.6769 52.4046C91.7107 52.4046 89.9729 52.1368 88.4634 51.6011C86.9595 51.0655 85.8344 50.5527 85.0936 50.057V64H79V17.812C80.4426 17.453 82.2417 17.0655 84.4085 16.6382C86.5696 16.2165 89.0706 16 91.9113 16C94.5347 16 96.8908 16.4274 98.9851 17.2764C101.079 18.1254 102.873 19.3276 104.355 20.8946C105.842 22.4615 106.984 24.3704 107.797 26.6268C108.593 28.8832 109 31.4188 109 34.2336ZM102.645 34.2336C102.645 30.1709 101.664 27.0427 99.6981 24.849C97.7319 22.661 95.114 21.567 91.8333 21.567C90.0007 21.567 88.5693 21.6353 87.5444 21.7721C86.5195 21.9088 85.6951 22.0627 85.088 22.2393V44.2222C85.8288 44.849 86.8983 45.453 88.2963 46.0285C89.6944 46.6097 91.2206 46.9003 92.886 46.9003C94.6294 46.9003 96.1277 46.5812 97.3754 45.9316C98.6231 45.282 99.6368 44.3875 100.422 43.2479C101.208 42.1083 101.776 40.7692 102.127 39.2251C102.472 37.6866 102.645 36.0228 102.645 34.2336Z"
		fill="#FFFFFF" />
	<path
		d="M128.662 16C131.15 16 133.253 16.3207 134.965 16.9622C136.677 17.6036 138.055 18.5039 139.098 19.6743C140.141 20.8446 140.889 22.2344 141.331 23.8437C141.773 25.453 142 27.231 142 29.1722V50.6833C141.467 50.7734 140.719 50.8915 139.767 51.0435C138.809 51.201 137.731 51.3417 136.53 51.4711C135.328 51.6061 134.03 51.7243 132.63 51.8368C131.229 51.9494 129.841 52 128.463 52C126.507 52 124.705 51.8031 123.061 51.4036C121.417 51.0041 119.994 50.3795 118.798 49.5186C117.596 48.6577 116.667 47.5211 115.998 46.1088C115.329 44.6965 115 42.9972 115 41.0109C115 39.1147 115.385 37.4773 116.168 36.11C116.944 34.7427 118.004 33.6399 119.337 32.8015C120.674 31.9631 122.228 31.3442 124.008 30.9503C125.782 30.5508 127.653 30.3539 129.608 30.3539C130.232 30.3539 130.878 30.3876 131.541 30.4551C132.21 30.5227 132.845 30.6127 133.446 30.7196C134.047 30.8321 134.568 30.9278 135.01 31.0178C135.453 31.1078 135.764 31.1754 135.94 31.2148V29.493C135.94 28.4802 135.827 27.473 135.606 26.4827C135.379 25.4923 134.982 24.6089 134.404 23.8324C133.826 23.0616 133.038 22.4426 132.04 21.9812C131.042 21.5199 129.739 21.2835 128.14 21.2835C126.094 21.2835 124.308 21.4298 122.772 21.7112C121.241 21.9981 120.096 22.2963 119.337 22.6058L118.605 17.5136C119.405 17.1591 120.737 16.8159 122.607 16.4839C124.467 16.1688 126.485 16 128.662 16ZM129.2 46.8459C130.668 46.8459 131.966 46.8121 133.1 46.7446C134.234 46.6771 135.181 46.5589 135.934 46.3845V36.1213C135.492 35.9018 134.767 35.7162 133.769 35.5586C132.771 35.4067 131.558 35.3279 130.135 35.3279C129.2 35.3279 128.208 35.3954 127.165 35.5249C126.122 35.6599 125.164 35.9356 124.297 36.352C123.429 36.774 122.709 37.3423 122.131 38.0738C121.553 38.7996 121.264 39.7618 121.264 40.9547C121.264 43.1604 121.972 44.6965 123.395 45.5574C124.818 46.4126 126.757 46.8459 129.2 46.8459Z"
		fill="#FFFFFF" />
	<path
		d="M164.737 32.2046C166.091 33.2103 167.525 34.4619 169.041 35.9481C170.556 37.4399 172.042 39.049 173.511 40.781C174.98 42.513 176.368 44.2618 177.682 46.0386C178.989 47.8097 180.096 49.4691 181 51H173.615C172.664 49.4691 171.57 47.8991 170.325 46.3012C169.081 44.7032 167.785 43.1667 166.431 41.6973C165.077 40.2279 163.7 38.8814 162.3 37.6578C160.9 36.4286 159.564 35.4005 158.302 34.568V50.9944H152V1.05039L158.302 0V31.1487C159.385 30.0983 160.584 28.9361 161.891 27.6678C163.205 26.394 164.489 25.1033 165.757 23.7903C167.018 22.4773 168.217 21.2202 169.346 20.0134C170.475 18.8065 171.449 17.745 172.261 16.8231H179.646C178.609 17.9182 177.48 19.125 176.259 20.438C175.038 21.751 173.77 23.0752 172.462 24.4161C171.149 25.7514 169.83 27.0868 168.499 28.4221C167.162 29.763 165.907 31.0202 164.737 32.2046Z"
		fill="#FFFFFF" />
	<path
		d="M192.295 16.7019H205.641V21.8833H192.295V37.8344C192.295 39.5634 192.434 40.993 192.704 42.1231C192.975 43.2532 193.378 44.1403 193.925 44.7844C194.467 45.4286 195.146 45.8806 195.959 46.1462C196.771 46.4117 197.721 46.5474 198.804 46.5474C200.699 46.5474 202.225 46.3383 203.377 45.9145C204.529 45.4907 205.33 45.1913 205.779 45.0161L207 50.1354C206.366 50.4461 205.261 50.836 203.682 51.2993C202.098 51.7627 200.296 52 198.262 52C195.866 52 193.891 51.7005 192.336 51.1016C190.775 50.5026 189.525 49.6042 188.575 48.412C187.63 47.2141 186.962 45.745 186.576 43.9934C186.19 42.2417 186 40.2189 186 37.9135V7.06228L192.301 6V16.7019H192.295Z"
		fill="#FFFFFF" />
	<path
		d="M226.535 0C228.355 0 229.925 0.134108 231.234 0.396735C232.543 0.659362 233.467 0.899639 234 1.11756L232.866 6.3757C232.334 6.11307 231.574 5.86162 230.599 5.62134C229.624 5.38107 228.423 5.25814 227 5.25814C224.109 5.25814 222.086 6.03484 220.935 7.59384C219.779 9.14726 219.201 11.2371 219.201 13.869V16.8249H232.532V21.9489H219.201V51H213V13.7349C213 9.354 214.088 5.96779 216.265 3.58179C218.447 1.19579 221.87 0 226.535 0Z"
		fill="#FFFFFF" />
	<path
		d="M266 50.2853C264.577 50.6383 262.701 51.0082 260.366 51.406C258.031 51.8039 255.333 52 252.266 52C249.597 52 247.352 51.6134 245.533 50.8457C243.708 50.078 242.245 48.9909 241.134 47.5844C240.023 46.1779 239.224 44.5192 238.737 42.6084C238.244 40.6976 238 38.5738 238 36.2483V17H244.201V34.9315C244.201 39.1061 244.864 42.0929 246.202 43.8972C247.534 45.7016 249.778 46.5981 252.935 46.5981C253.598 46.5981 254.29 46.5757 254.998 46.5309C255.707 46.4861 256.376 46.4356 256.999 46.3684C257.623 46.3012 258.189 46.2339 258.7 46.1723C259.21 46.105 259.578 46.0322 259.799 45.9425V17H266V50.2853Z"
		fill="#FFFFFF" />
	<path
		d="M287.169 52C283.476 51.91 280.862 51.0944 279.319 49.5476C277.777 48.0065 277 45.6048 277 42.3368V1.05744L282.984 0V41.3525C282.984 42.365 283.072 43.203 283.241 43.8667C283.416 44.5304 283.695 45.0592 284.078 45.4585C284.461 45.8522 284.975 46.1504 285.621 46.3528C286.261 46.5497 287.059 46.7128 288 46.8478L287.169 52Z"
		fill="#FFFFFF" />
	<path
		d="M305.164 52C301.473 51.91 298.86 51.0944 297.318 49.5476C295.776 48.0065 295 45.6048 295 42.3368V1.05744L300.987 0V41.3525C300.987 42.365 301.074 43.203 301.244 43.8667C301.418 44.5304 301.697 45.0592 302.08 45.4585C302.463 45.8522 302.977 46.1504 303.622 46.3528C304.261 46.5497 305.06 46.7128 306 46.8478L305.164 52Z"
		fill="#FFFFFF" />
	<path d="M8.91446 17L14 33.7487L9.12729 51H3L7.87271 33.7487L3.11202 17H8.91446Z" fill="#FFFFFF" />
	<path d="M1.50811 11H7L5.38919 6H0L1.50811 11Z" fill="#FFFFFF" />
</svg>