<svg width="64" height="64" viewBox="0 0 64 64" fill="none" xmlns="http://www.w3.org/2000/svg">
<path d="M45.5141 6.00099C47.0484 5.98445 48.5781 6.17535 50.0632 6.56869C51.1551 6.84787 52.2227 7.21805 53.2551 7.67546L51.5422 15.647C50.7243 15.2373 49.8596 14.9329 48.9681 14.7406C48.124 14.5512 47.2629 14.452 46.3987 14.4449C45.4787 14.4094 44.5618 14.572 43.7076 14.9219C43.0267 15.2162 42.4354 15.6905 41.9946 16.2958C41.5524 16.9261 41.2461 17.6448 41.0961 18.4044C40.9123 19.2631 40.8229 20.1399 40.8293 21.0187V24.3342H51.8604V31.0702H40.8387V58H32.0306V20.8708C32.0306 16.3197 33.1632 12.7036 35.4284 10.0226C37.6936 7.34151 41.0555 6.00099 45.5141 6.00099Z" fill="#1A1A1A"/>
<path d="M26.7551 41.0007L23.3369 58H13.6123L17.0305 41.0007L13.6056 23.9658H23.3243L26.7551 41.0007Z" fill="#1A1A1A"/>
<path d="M22.5275 20.0093L20.7143 11.0062H11L12.8101 20.0093H22.5275Z" fill="#1A1A1A"/>
</svg>
