<svg id="icons" xmlns="http://www.w3.org/2000/svg" viewBox="0 0 128 128"><defs><style>.cls-1{fill:#f54b55;}.cls-2{fill:#303442;opacity:0.08;}.cls-3{fill:none;stroke:#303442;stroke-linecap:round;stroke-linejoin:round;stroke-width:4px;}</style></defs><title>heart</title><path class="cls-1" d="M85,22a24.99631,24.99631,0,0,1,25,25c0,25-38,59-46,59S18,72,18,47A24.99805,24.99805,0,0,1,64,33.44,24.97251,24.97251,0,0,1,85,22Z"/><path class="cls-2" d="M64,96c-7.471,0-41.09528-29.6499-45.51117-53.93274A25.12044,25.12044,0,0,0,18,47c0,25,38,59,46,59s46-34,46-59a25.12044,25.12044,0,0,0-.48883-4.93274C105.09528,66.3501,71.471,96,64,96Z"/><path class="cls-3" d="M85,22A24.97251,24.97251,0,0,0,64,33.44,24.99805,24.99805,0,0,0,18,47c0,25,38,59,46,59s46-34,46-59A24.99631,24.99631,0,0,0,85,22Z"/></svg>